<svg xmlns="http://www.w3.org/2000/svg" width="85" height="84.896" viewBox="0 0 85 84.896">
  <g id="Grupo_1240811" data-name="Grupo 1240811" transform="translate(2206 9270.106)">
    <path id="Trazado_1328522" data-name="Trazado 1328522" d="M328.134,76.865l-5.844-1.312a1.671,1.671,0,0,0-1.9.965l-2.385,5.495a1.671,1.671,0,0,1-2.408.758l-5.1-3.139a1.671,1.671,0,0,0-2.109.3l-4.04,4.423a1.671,1.671,0,0,1-2.524-.065l-3.806-4.625a1.671,1.671,0,0,0-2.091-.4l-5.257,2.871a1.671,1.671,0,0,1-2.366-.881l-2.1-5.61a1.671,1.671,0,0,0-1.847-1.062l-5.9,1.009a1.671,1.671,0,0,1-1.951-1.6l-.163-5.988a1.671,1.671,0,0,0-1.4-1.6l-5.912-.963a1.671,1.671,0,0,1-1.326-2.149l1.79-5.716a1.671,1.671,0,0,0-.8-1.972l-5.279-2.831a1.671,1.671,0,0,1-.557-2.462l3.549-4.825a1.671,1.671,0,0,0-.121-2.127L262.2,38.955a1.671,1.671,0,0,1,.273-2.51l4.924-3.411a1.671,1.671,0,0,0,.576-2.051l-2.427-5.476a1.671,1.671,0,0,1,1.073-2.285l5.765-1.628a1.67,1.67,0,0,0,1.21-1.752l-.518-5.968a1.671,1.671,0,0,1,1.757-1.813l5.981.332a1.671,1.671,0,0,0,1.714-1.264l1.448-5.812a1.671,1.671,0,0,1,2.251-1.144l5.549,2.256a1.671,1.671,0,0,0,2.032-.639L297.067.762a1.671,1.671,0,0,1,2.5-.351l4.516,3.935a1.671,1.671,0,0,0,2.129.055L310.925.7a1.671,1.671,0,0,1,2.479.48L316.4,6.372a1.672,1.672,0,0,0,2,.743l5.658-1.967a1.671,1.671,0,0,1,2.189,1.259l1.146,5.879a1.672,1.672,0,0,0,1.647,1.351l5.99-.023a1.671,1.671,0,0,1,1.661,1.9l-.825,5.933a1.671,1.671,0,0,0,1.119,1.813l5.673,1.923a1.671,1.671,0,0,1,.954,2.338L340.9,32.864a1.671,1.671,0,0,0,.469,2.078l4.741,3.661a1.671,1.671,0,0,1,.143,2.52L341.957,45.3a1.671,1.671,0,0,0-.231,2.117l3.3,5a1.671,1.671,0,0,1-.683,2.431L338.921,57.4a1.671,1.671,0,0,0-.905,1.928l1.493,5.8a1.671,1.671,0,0,1-1.435,2.077l-5.954.657a1.671,1.671,0,0,0-1.483,1.529l-.471,5.971a1.671,1.671,0,0,1-2.032,1.5" transform="translate(-2467.757 -9270.106)" fill="#fed57b"/>
    <g id="Grupo_1240771" data-name="Grupo 1240771" transform="translate(-2185.617 -9253.871)">
      <g id="Grupo_1240755" data-name="Grupo 1240755" transform="translate(21.741 24.183)">
        <path id="Trazado_1329257" data-name="Trazado 1329257" d="M251.639,224.876h21.842v3.719a2.765,2.765,0,0,1-2.765,2.765H251.639Z" transform="translate(-251.639 -224.876)" fill="#fbe77b"/>
      </g>
      <g id="Grupo_1240756" data-name="Grupo 1240756" transform="translate(21.741 24.183)">
        <path id="Trazado_1329258" data-name="Trazado 1329258" d="M270.963,224.875v1.02a2.945,2.945,0,0,1-2.945,2.945H251.639v2.518H270.7a2.783,2.783,0,0,0,2.783-2.783v-3.7h-2.518Z" transform="translate(-251.639 -224.875)" fill="#fcdd2e"/>
      </g>
      <g id="Grupo_1240757" data-name="Grupo 1240757" transform="translate(4.589 5.861)">
        <path id="Trazado_1329259" data-name="Trazado 1329259" d="M74.334,32.322l16.63.018A1.139,1.139,0,0,0,92.1,31.13a19.49,19.49,0,1,0-6.725,15.96,1.138,1.138,0,0,0,.069-1.657L73.819,33.543A.719.719,0,0,1,74.334,32.322Z" transform="translate(-53.109 -12.806)" fill="#f2e7e4"/>
      </g>
      <g id="Grupo_1240758" data-name="Grupo 1240758" transform="translate(6.234 33.204)">
        <path id="Trazado_1329260" data-name="Trazado 1329260" d="M98.418,330.046a19.535,19.535,0,0,1-26.268-.762c.1.238.212.475.327.71a19.523,19.523,0,0,0,30.288,6.238,1.141,1.141,0,0,0,.076-1.663Z" transform="translate(-72.15 -329.284)" fill="#ded0cb"/>
      </g>
      <g id="Grupo_1240759" data-name="Grupo 1240759" transform="translate(37.656 11.335)">
        <path id="Trazado_1329261" data-name="Trazado 1329261" d="M441.778,89.011a19.579,19.579,0,0,0-5.924-12.851,19.443,19.443,0,0,1,.619,14.056l4.168,0A1.139,1.139,0,0,0,441.778,89.011Z" transform="translate(-435.854 -76.16)" fill="#ded0cb"/>
      </g>
      <g id="Grupo_1240760" data-name="Grupo 1240760" transform="translate(0.65 16.157)">
        <path id="Trazado_1329262" data-name="Trazado 1329262" d="M7.8,155.078a2.807,2.807,0,0,0,.349,2.988,15.18,15.18,0,0,0,23.615,0,2.807,2.807,0,0,0,.349-2.988L21.368,132.862a1.57,1.57,0,0,0-2.827,0Z" transform="translate(-7.52 -131.975)" fill="#fbe77b"/>
      </g>
      <g id="Grupo_1240761" data-name="Grupo 1240761" transform="translate(9.415 16.157)">
        <path id="Trazado_1329263" data-name="Trazado 1329263" d="M124.8,155.078l-10.743-22.216a1.57,1.57,0,0,0-2.827,0l-2.257,4.667,8.486,17.55a2.807,2.807,0,0,1-.349,2.988,15.185,15.185,0,0,1-8.138,5.192,15.194,15.194,0,0,0,15.478-5.192A2.807,2.807,0,0,0,124.8,155.078Z" transform="translate(-108.972 -131.975)" fill="#fcdd2e"/>
      </g>
      <g id="Grupo_1240762" data-name="Grupo 1240762" transform="translate(9.349 36.36)">
        <circle id="Elipse_13843" data-name="Elipse 13843" cx="2.441" cy="2.441" r="2.441" fill="#f9c301"/>
      </g>
      <g id="Grupo_1240763" data-name="Grupo 1240763" transform="translate(9.632 36.392)">
        <path id="Trazado_1329264" data-name="Trazado 1329264" d="M114.038,366.187a2.44,2.44,0,0,1-2.55,3.55,2.441,2.441,0,1,0,2.55-3.55Z" transform="translate(-111.488 -366.187)" fill="#e6b700"/>
      </g>
      <g id="Grupo_1240764" data-name="Grupo 1240764" transform="translate(13.282 29.568)">
        <circle id="Elipse_13844" data-name="Elipse 13844" cx="1.227" cy="1.227" r="1.227" transform="translate(0 0)" fill="#f9c301"/>
      </g>
      <g id="Grupo_1240765" data-name="Grupo 1240765" transform="translate(8.721 31.802)">
        <circle id="Elipse_13845" data-name="Elipse 13845" cx="1.227" cy="1.227" r="1.227" fill="#f9c301"/>
      </g>
      <g id="Grupo_1240766" data-name="Grupo 1240766" transform="translate(19.358 38.673)">
        <circle id="Elipse_13846" data-name="Elipse 13846" cx="1.227" cy="1.227" r="1.227" fill="#f9c301"/>
      </g>
      <g id="Grupo_1240767" data-name="Grupo 1240767" transform="translate(8.794 29.574)">
        <path id="Trazado_1329265" data-name="Trazado 1329265" d="M155.842,287.268a1.224,1.224,0,0,1-1.154,1.641c-.04,0-.079,0-.118-.006a1.227,1.227,0,1,0,1.272-1.635Z" transform="translate(-150.009 -287.268)" fill="#e6b700"/>
        <path id="Trazado_1329266" data-name="Trazado 1329266" d="M103.052,313.123a1.224,1.224,0,0,1-1.154,1.641c-.04,0-.079,0-.118-.006a1.227,1.227,0,1,0,1.272-1.635Z" transform="translate(-101.78 -310.889)" fill="#e6b700"/>
        <path id="Trazado_1329267" data-name="Trazado 1329267" d="M226.17,392.655a1.224,1.224,0,0,1-1.154,1.641c-.04,0-.079,0-.118-.006a1.227,1.227,0,1,0,1.272-1.635Z" transform="translate(-214.261 -383.55)" fill="#e6b700"/>
      </g>
      <g id="Grupo_1240768" data-name="Grupo 1240768" transform="translate(31.652 27.304)">
        <path id="Trazado_1329268" data-name="Trazado 1329268" d="M368.9,260.992a2.549,2.549,0,0,0-2.416,3.363h4.831a2.549,2.549,0,0,0-2.416-3.363Z" transform="translate(-366.351 -260.992)" fill="#f9c301"/>
      </g>
      <g id="Grupo_1240769" data-name="Grupo 1240769" transform="translate(33.187 27.304)">
        <path id="Trazado_1329269" data-name="Trazado 1329269" d="M385.14,260.992a2.54,2.54,0,0,0-1.014.21,2.549,2.549,0,0,1,1.4,3.153h2.027a2.549,2.549,0,0,0-2.416-3.363Z" transform="translate(-384.126 -260.992)" fill="#e6b700"/>
      </g>
      <g id="Grupo_1240770" data-name="Grupo 1240770" transform="translate(0 5.205)">
        <path id="Trazado_1329270" data-name="Trazado 1329270" d="M44.228,24.09A20.213,20.213,0,0,0,37,9.872a.652.652,0,1,0-.834,1,18.913,18.913,0,0,1,6.763,13.35.487.487,0,0,1-.485.518h0l-4.613-.005h0a.652.652,0,0,0,0,1.3l4.613.005h0a1.78,1.78,0,0,0,.486-.07v1.907a2.133,2.133,0,0,1-2.13,2.13H37.4c0-.054,0-.108,0-.162a3.2,3.2,0,1,0-6.4,0c0,.054,0,.108,0,.162H29.551l-3.785-3.872q-.052-.088.048-.113l8.884.01h0a.652.652,0,0,0,0-1.3l-8.885-.01h0a1.371,1.371,0,0,0-.98,2.329L36.458,38.946a.485.485,0,0,1-.029.707,18.919,18.919,0,0,1-12.492,4.584A16.048,16.048,0,0,0,25.4,42.658a3.474,3.474,0,0,0,.429-3.682L15.086,16.76a2.222,2.222,0,0,0-4,0l-5.607,11.6A18.864,18.864,0,0,1,33.864,9.238a.652.652,0,1,0,.674-1.117A20.167,20.167,0,0,0,4.544,30.285l-4.2,8.691a3.474,3.474,0,0,0,.429,3.682A15.965,15.965,0,0,0,2.861,44.8a.652.652,0,0,0,.843-1,14.662,14.662,0,0,1-1.919-1.963,2.165,2.165,0,0,1-.269-2.294L12.259,17.327a.918.918,0,0,1,1.652,0L24.654,39.544a2.165,2.165,0,0,1-.269,2.294A14.535,14.535,0,0,1,6.06,45.427a.652.652,0,0,0-.632,1.141,15.849,15.849,0,0,0,17.027-1.1q.825.068,1.651.069a20.23,20.23,0,0,0,13.176-4.9,1.79,1.79,0,0,0,.11-2.606l-6.565-6.715H40.8a3.439,3.439,0,0,0,3.435-3.435s0-3.507-.007-3.794ZM32.3,29.853a1.9,1.9,0,1,1,3.794,0q0,.081-.007.162h-3.78Q32.3,29.934,32.3,29.853Z" transform="translate(0 -5.205)"/>
        <path id="Trazado_1329271" data-name="Trazado 1329271" d="M100.659,361.363a3.093,3.093,0,1,0,3.093-3.093A3.1,3.1,0,0,0,100.659,361.363Zm4.881,0a1.788,1.788,0,1,1-1.788-1.788A1.79,1.79,0,0,1,105.54,361.363Z" transform="translate(-91.962 -327.767)"/>
        <path id="Trazado_1329272" data-name="Trazado 1329272" d="M149.936,281.529a1.88,1.88,0,1,0-1.88,1.88A1.882,1.882,0,0,0,149.936,281.529Zm-2.455,0a.575.575,0,1,1,.575.575A.576.576,0,0,1,147.481,281.529Z" transform="translate(-133.548 -255.939)"/>
        <path id="Trazado_1329273" data-name="Trazado 1329273" d="M95.268,305.505a1.88,1.88,0,1,0,1.879,1.88A1.882,1.882,0,0,0,95.268,305.505Zm0,2.455a.575.575,0,1,1,.575-.575A.576.576,0,0,1,95.268,307.96Z" transform="translate(-85.32 -279.56)"/>
        <path id="Trazado_1329274" data-name="Trazado 1329274" d="M220.263,386.917a1.88,1.88,0,1,0-1.88,1.88A1.882,1.882,0,0,0,220.263,386.917Zm-2.455,0a.575.575,0,1,1,.575.575A.576.576,0,0,1,217.808,386.917Z" transform="translate(-197.799 -352.222)"/>
      </g>
    </g>
  </g>
</svg>
