<svg xmlns="http://www.w3.org/2000/svg" width="85" height="84.895" viewBox="0 0 85 84.895">
  <g id="Grupo_1240818" data-name="Grupo 1240818" transform="translate(-10973 -183.476)">
    <path id="Trazado_1327177" data-name="Trazado 1327177" d="M328.134,76.865l-5.844-1.312a1.671,1.671,0,0,0-1.9.965l-2.385,5.494a1.671,1.671,0,0,1-2.408.758l-5.1-3.139a1.671,1.671,0,0,0-2.109.3l-4.04,4.423a1.671,1.671,0,0,1-2.524-.065l-3.806-4.625a1.671,1.671,0,0,0-2.091-.4l-5.257,2.871a1.671,1.671,0,0,1-2.366-.881l-2.1-5.61a1.671,1.671,0,0,0-1.847-1.062l-5.9,1.009a1.671,1.671,0,0,1-1.951-1.6l-.163-5.987a1.671,1.671,0,0,0-1.4-1.6l-5.912-.963a1.671,1.671,0,0,1-1.326-2.149l1.79-5.716a1.671,1.671,0,0,0-.8-1.972l-5.279-2.831a1.671,1.671,0,0,1-.557-2.462l3.549-4.825a1.671,1.671,0,0,0-.121-2.127L262.2,38.955a1.671,1.671,0,0,1,.273-2.51l4.923-3.411a1.671,1.671,0,0,0,.576-2.051l-2.427-5.476a1.671,1.671,0,0,1,1.073-2.285l5.765-1.628a1.67,1.67,0,0,0,1.21-1.752l-.518-5.968a1.671,1.671,0,0,1,1.757-1.813l5.981.332a1.671,1.671,0,0,0,1.714-1.264l1.448-5.812a1.671,1.671,0,0,1,2.251-1.144l5.549,2.256a1.671,1.671,0,0,0,2.032-.639L297.067.762a1.671,1.671,0,0,1,2.5-.351l4.516,3.935a1.671,1.671,0,0,0,2.129.055L310.924.7a1.671,1.671,0,0,1,2.479.48L316.4,6.372a1.672,1.672,0,0,0,2,.743l5.658-1.967a1.671,1.671,0,0,1,2.189,1.259l1.146,5.879a1.672,1.672,0,0,0,1.647,1.351l5.99-.023a1.671,1.671,0,0,1,1.661,1.9l-.825,5.933a1.671,1.671,0,0,0,1.119,1.812l5.673,1.923a1.671,1.671,0,0,1,.954,2.338L340.9,32.864a1.671,1.671,0,0,0,.469,2.078l4.741,3.661a1.671,1.671,0,0,1,.144,2.52L341.956,45.3a1.671,1.671,0,0,0-.231,2.117l3.3,5a1.671,1.671,0,0,1-.683,2.431L338.921,57.4a1.671,1.671,0,0,0-.905,1.928l1.493,5.8a1.671,1.671,0,0,1-1.435,2.077l-5.954.657a1.671,1.671,0,0,0-1.483,1.529l-.471,5.971a1.671,1.671,0,0,1-2.032,1.5" transform="translate(10711.242 183.477)" fill="#fed57b"/>
    <g id="Grupo_1240801" data-name="Grupo 1240801" transform="translate(10991.167 164.118)">
      <g id="Grupo_1240799" data-name="Grupo 1240799" transform="translate(7.5 37.619)">
        <path id="Trazado_1329392" data-name="Trazado 1329392" d="M63.58,109.213v5.343H22.561v-7.813a15.079,15.079,0,0,1,.58-4.142,15.075,15.075,0,0,0,.58-4.14q0-.579-.045-1.159l-.9-11.665A2.636,2.636,0,0,1,25.407,82.8H38.439l7.31,14.983,15.841,6.188c.057.063.112.127.166.192A7.892,7.892,0,0,1,63.58,109.213Z" transform="translate(-21.238 -78.829)" fill="#efb899"/>
        <path id="Trazado_1329393" data-name="Trazado 1329393" d="M41.926,114.557H22.561v-7.813a15.079,15.079,0,0,1,.58-4.142,15.075,15.075,0,0,0,.58-4.14q0-.579-.045-1.159l-.9-11.665A2.636,2.636,0,0,1,25.407,82.8H36.8c-2.5,4.64-8.174,18.177,3.221,29.572A18.948,18.948,0,0,1,41.926,114.557Z" transform="translate(-21.238 -78.829)" fill="#e4996d"/>
        <path id="Trazado_1329394" data-name="Trazado 1329394" d="M226.412,62.759h-4.625c-18.451,0-18.525-21-18.525-21.17h0V40.271a2.652,2.652,0,0,1,2.652-2.652,1.317,1.317,0,0,1,1.318,1.318v3.556A18.048,18.048,0,0,0,221.948,60.23,7.883,7.883,0,0,1,226.412,62.759Z" transform="translate(-186.06 -37.619)" fill="#b0f0e6"/>
        <path id="Trazado_1329395" data-name="Trazado 1329395" d="M24.293,294.244v1.324H15.031v-7.813a15.079,15.079,0,0,1,.58-4.142,15.035,15.035,0,0,0,.416-1.931v-.006a.5.5,0,0,1,.648-.4C18.934,282.039,24.293,284.844,24.293,294.244Z" transform="translate(-14.369 -259.841)" fill="#f1e12b"/>
        <path id="Trazado_1329396" data-name="Trazado 1329396" d="M359.556,293.814v5.343H346.324v-1.324c0-7.04,2.284-10.15,4.417-11.516a2.622,2.622,0,0,1,1.895-.364l.534.1A7.908,7.908,0,0,1,359.556,293.814Z" transform="translate(-316.552 -264.092)" fill="#f8ea69"/>
        <path id="Trazado_1329397" data-name="Trazado 1329397" d="M51.167,415.407v2.656a1.318,1.318,0,0,1-1.318,1.318H47.856l-.659-.388-.659.388H43.887l-.659-.462-.659.462H39.917l-.728-.462-.59.462H35.947l-.659-.462-.659.462H31.978l-.659-.582-.659.582H28.008l-.725-.507-.593.507H24.039l-.659-.417-.659.417H20.069l-.659-.552-.659.552H16.1l-.736-.627-.582.627H12.13l-.659-.627-.659.627H8.819A1.318,1.318,0,0,1,7.5,418.063v-2.656a1.318,1.318,0,0,1,1.318-1.318h1.993l.659.492.659-.492h2.651l.582.627.736-.627h2.652l.659.552.659-.552h2.652l.659.417.659-.417H26.69l.593.507.725-.507H30.66l.659.582.659-.582h2.651l.659.462.659-.462H38.6l.59.462.728-.462h2.652l.659.462.659-.462h2.651l.659.388.659-.388h1.993A1.318,1.318,0,0,1,51.167,415.407Z" transform="translate(-7.501 -381.009)" fill="#7b849b"/>
        <path id="Trazado_1329398" data-name="Trazado 1329398" d="M25.83,419.381H24.039l-.659-.417-.659.417H20.069l-.659-.552-.659.552H16.1l-.736-.627-.582.627H12.13l-.659-.627-.659.627H8.819A1.318,1.318,0,0,1,7.5,418.063v-2.656a1.318,1.318,0,0,1,1.318-1.318h1.993l.659.492.659-.492h2.651l.582.627.736-.627h2.652l.659.552.659-.552h2.652l.659.417.659-.417H25.83A5.8,5.8,0,0,0,25.83,419.381Z" transform="translate(-7.501 -381.009)" fill="#5d6a85"/>
      </g>
      <g id="Grupo_1240800" data-name="Grupo 1240800" transform="translate(7.5 37.619)">
        <path id="Trazado_1329399" data-name="Trazado 1329399" d="M177.281,41.589h2.283V40.271a2.652,2.652,0,0,1,2.652-2.652,1.318,1.318,0,0,1,1.318,1.318v3.556A18.05,18.05,0,0,0,196.38,59.775" transform="translate(-162.363 -37.619)" fill="none" stroke="#000" stroke-linecap="round" stroke-linejoin="round" stroke-miterlimit="10" stroke-width="1"/>
        <path id="Trazado_1329400" data-name="Trazado 1329400" d="M25.8,100.189a15.056,15.056,0,0,0,.054-2.887l-.9-11.665A2.636,2.636,0,0,1,27.587,82.8h7.674" transform="translate(-23.418 -78.829)" fill="none" stroke="#000" stroke-linecap="round" stroke-linejoin="round" stroke-miterlimit="10" stroke-width="1"/>
        <path id="Trazado_1329401" data-name="Trazado 1329401" d="M321.664,303.471a16.434,16.434,0,0,1-4.473-1.542" transform="translate(-289.979 -278.704)" fill="none" stroke="#000" stroke-linecap="round" stroke-linejoin="round" stroke-miterlimit="10" stroke-width="1"/>
        <path id="Trazado_1329402" data-name="Trazado 1329402" d="M203.261,82.789h0c0,.126.04,11.557,7.44,17.566" transform="translate(-186.06 -78.82)" fill="none" stroke="#000" stroke-linecap="round" stroke-linejoin="round" stroke-miterlimit="10" stroke-width="1"/>
        <path id="Trazado_1329403" data-name="Trazado 1329403" d="M81.781,312.829c1.637,1.757,3.091,4.512,3.354,8.807" transform="translate(-75.254 -288.647)" fill="none" stroke="#000" stroke-linecap="round" stroke-linejoin="round" stroke-miterlimit="10" stroke-width="1"/>
        <path id="Trazado_1329404" data-name="Trazado 1329404" d="M15.031,292.832v-5.075a15.079,15.079,0,0,1,.58-4.142,15.033,15.033,0,0,0,.416-1.931s0,0,0-.006a.5.5,0,0,1,.648-.4,10,10,0,0,1,1.807.825" transform="translate(-14.369 -259.843)" fill="none" stroke="#000" stroke-linecap="round" stroke-linejoin="round" stroke-miterlimit="10" stroke-width="1"/>
        <path id="Trazado_1329405" data-name="Trazado 1329405" d="M359.685,297.172v-3.357a7.908,7.908,0,0,0-6.386-7.76l-.534-.1a2.62,2.62,0,0,0-1.894.363c-2.042,1.306-4.221,4.21-4.4,10.629" transform="translate(-316.681 -264.093)" fill="none" stroke="#000" stroke-linecap="round" stroke-linejoin="round" stroke-miterlimit="10" stroke-width="1"/>
        <path id="Trazado_1329406" data-name="Trazado 1329406" d="M49.848,419.38H8.818A1.318,1.318,0,0,1,7.5,418.062V415.4a1.318,1.318,0,0,1,1.318-1.318h41.03a1.318,1.318,0,0,1,1.318,1.318v2.657A1.318,1.318,0,0,1,49.848,419.38Z" transform="translate(-7.5 -381.007)" fill="none" stroke="#000" stroke-linecap="round" stroke-linejoin="round" stroke-miterlimit="10" stroke-width="1"/>
        <line id="Línea_4762" data-name="Línea 4762" y2="4.637" transform="translate(19.848 33.408)" fill="none" stroke="#000" stroke-linecap="round" stroke-linejoin="round" stroke-miterlimit="10" stroke-width="1"/>
        <line id="Línea_4763" data-name="Línea 4763" y2="4.637" transform="translate(15.878 33.408)" fill="none" stroke="#000" stroke-linecap="round" stroke-linejoin="round" stroke-miterlimit="10" stroke-width="1"/>
        <line id="Línea_4764" data-name="Línea 4764" y2="4.637" transform="translate(11.909 33.408)" fill="none" stroke="#000" stroke-linecap="round" stroke-linejoin="round" stroke-miterlimit="10" stroke-width="1"/>
        <line id="Línea_4765" data-name="Línea 4765" y2="4.637" transform="translate(7.939 33.408)" fill="none" stroke="#000" stroke-linecap="round" stroke-linejoin="round" stroke-miterlimit="10" stroke-width="1"/>
        <line id="Línea_4766" data-name="Línea 4766" y2="4.637" transform="translate(3.97 33.408)" fill="none" stroke="#000" stroke-linecap="round" stroke-linejoin="round" stroke-miterlimit="10" stroke-width="1"/>
        <line id="Línea_4767" data-name="Línea 4767" y2="4.637" transform="translate(23.818 33.408)" fill="none" stroke="#000" stroke-linecap="round" stroke-linejoin="round" stroke-miterlimit="10" stroke-width="1"/>
        <line id="Línea_4768" data-name="Línea 4768" y2="4.637" transform="translate(27.787 33.408)" fill="none" stroke="#000" stroke-linecap="round" stroke-linejoin="round" stroke-miterlimit="10" stroke-width="1"/>
        <line id="Línea_4769" data-name="Línea 4769" y2="4.637" transform="translate(31.757 33.408)" fill="none" stroke="#000" stroke-linecap="round" stroke-linejoin="round" stroke-miterlimit="10" stroke-width="1"/>
        <line id="Línea_4770" data-name="Línea 4770" y2="4.637" transform="translate(35.726 33.408)" fill="none" stroke="#000" stroke-linecap="round" stroke-linejoin="round" stroke-miterlimit="10" stroke-width="1"/>
        <line id="Línea_4771" data-name="Línea 4771" y2="4.637" transform="translate(39.696 33.408)" fill="none" stroke="#000" stroke-linecap="round" stroke-linejoin="round" stroke-miterlimit="10" stroke-width="1"/>
      </g>
    </g>
  </g>
</svg>
